<svg id="Layer_1" data-name="Layer 1" xmlns="http://www.w3.org/2000/svg" viewBox="0 0 16 16"><defs><style>.cls-1{fill:#fff;}.cls-2{fill-rule:evenodd;}</style></defs><rect class="cls-1" width="16" height="16"/><path class="cls-2" d="M4,5.1a1,1,0,1,0-1-1,1,1,0,0,0,1,1m-1,6.77a1,1,0,1,1,1,1,1,1,0,0,1-1-1M1.62,7.47a1,1,0,1,0-1-1,1,1,0,0,0,1,1m-1-3.34a1,1,0,1,1,1,1,1,1,0,0,1-1-1M6.39,7.47a1,1,0,1,0-1-1,1,1,0,0,0,1,1m-1-3.34a1,1,0,1,1,1,1,1,1,0,0,1-1-1m9,3.34a1,1,0,1,0-1-1,1,1,0,0,0,1,1m-1-3.34a1,1,0,1,1,1,1,1,1,0,0,1-1-1m1-1.41a1,1,0,1,0-1-1,1,1,0,0,0,1,1M11,6.51a1,1,0,1,1,1,1,1,1,0,0,1-1-1M12,5.1a1,1,0,1,0-1-1,1,1,0,0,0,1,1M8.65,6.51a1,1,0,1,1,1,1,1,1,0,0,1-1-1m1-1.41a1,1,0,1,0-1-1,1,1,0,0,0,1,1M.66,1.76a1,1,0,1,1,1,1,1,1,0,0,1-1-1m9,13.44a1,1,0,1,0-1-1,1,1,0,0,0,1,1m3.81-1a1,1,0,1,1,1,1,1,1,0,0,1-1-1m1-1.41a1,1,0,1,0-1-1,1,1,0,0,0,1,1M11,14.24a1,1,0,1,1,1,1,1,1,0,0,1-1-1m1-1.41a1,1,0,1,0-1-1,1,1,0,0,0,1,1m-3.34-1a1,1,0,1,1,1,1,1,1,0,0,1-1-1m1-1.42a1,1,0,1,0-1-1,1,1,0,0,0,1,1M5.43,14.24a1,1,0,1,1,1,1,1,1,0,0,1-1-1m1-3.79a1,1,0,1,0-1-1,1,1,0,0,0,1,1M.66,14.24a1,1,0,1,1,1,1,1,1,0,0,1-1-1m1-1.41a1,1,0,1,0-1-1,1,1,0,0,0,1,1m-1-3.34a1,1,0,1,1,1,1,1,1,0,0,1-1-1M0,16H16V0H0Z"/></svg>