<svg width="28" height="33" viewBox="0 0 28 33" fill="none" xmlns="http://www.w3.org/2000/svg">
<path d="M14 28.3499L21.425 20.9249C22.8934 19.4564 23.8933 17.5855 24.2983 15.5487C24.7034 13.5119 24.4954 11.4008 23.7006 9.48222C22.9059 7.56365 21.5601 5.92384 19.8334 4.77014C18.1067 3.61643 16.0767 3.00064 14 3.00064C11.9233 3.00064 9.89332 3.61643 8.16663 4.77014C6.43994 5.92384 5.09413 7.56365 4.29937 9.48222C3.50462 11.4008 3.29662 13.5119 3.70168 15.5487C4.10674 17.5855 5.10666 19.4564 6.57501 20.9249L14 28.3499ZM14 32.5919L4.45401 23.0459C2.56601 21.1579 1.28028 18.7524 0.759393 16.1337C0.238506 13.5149 0.50586 10.8005 1.52765 8.33373C2.54944 5.86694 4.27977 3.75854 6.49983 2.27515C8.71988 0.791757 11.33 0 14 0C16.67 0 19.2801 0.791757 21.5002 2.27515C23.7202 3.75854 25.4506 5.86694 26.4724 8.33373C27.4942 10.8005 27.7615 13.5149 27.2406 16.1337C26.7197 18.7524 25.434 21.1579 23.546 23.0459L14 32.5919ZM14 16.4999C14.7957 16.4999 15.5587 16.1838 16.1213 15.6212C16.6839 15.0586 17 14.2955 17 13.4999C17 12.7042 16.6839 11.9412 16.1213 11.3786C15.5587 10.816 14.7957 10.4999 14 10.4999C13.2044 10.4999 12.4413 10.816 11.8787 11.3786C11.3161 11.9412 11 12.7042 11 13.4999C11 14.2955 11.3161 15.0586 11.8787 15.6212C12.4413 16.1838 13.2044 16.4999 14 16.4999ZM14 19.4999C12.4087 19.4999 10.8826 18.8677 9.75736 17.7425C8.63215 16.6173 8.00001 15.0912 8.00001 13.4999C8.00001 11.9086 8.63215 10.3825 9.75736 9.25724C10.8826 8.13202 12.4087 7.49988 14 7.49988C15.5913 7.49988 17.1174 8.13202 18.2426 9.25724C19.3679 10.3825 20 11.9086 20 13.4999C20 15.0912 19.3679 16.6173 18.2426 17.7425C17.1174 18.8677 15.5913 19.4999 14 19.4999Z" fill="black"/>
</svg>
